# xmcd
#
# Track frame offsets:
#	150
#	14457
#	25622
#	39610
#	52862
#	66532
#	78470
#	88210
#	98240
#	110915
#	124137
#	137845
#
# Disc length: 2013 seconds
#
# Revision: 0
# Processed by: cddbd v1.4PL0 Copyright (c) Steve Scherf et al.
# Submitted via: EasyCDDAExtractor 4.6.0.1
#
DISCID=a607db0c
DTITLE=Joe Tex - Joe Tex Greatest Hits - 1991
DYEAR=1900
DGENRE=R&B
TTITLE0=Hold What You've Got
TTITLE1=I Gotcha
TTITLE2=Skinny Legs and All
TTITLE3=Show Me
TTITLE4=One Monkey Don't Stop No Show
TTITLE5=A Sweet Woman Like You
TTITLE6=I Want To (Do Everything For You)
TTITLE7=You Got What It Takes
TTITLE8=S.Y.S.L.J.F.M. (The Letter Song)
TTITLE9=Papa Was Too
TTITLE10=I Believe I'm Gonna Make It
TTITLE11=The Love You Save (May Be Your Own)
EXTD=
EXTT0=
EXTT1=
EXTT2=
EXTT3=
EXTT4=
EXTT5=
EXTT6=
EXTT7=
EXTT8=
EXTT9=
EXTT10=
EXTT11=
PLAYORDER=
